<svg width="194" height="43" viewBox="0 0 194 43" fill="none" xmlns="http://www.w3.org/2000/svg">
<path fill-rule="evenodd" clip-rule="evenodd" d="M2.68898 23.2834C4.17341 23.2834 5.37699 24.5621 5.37699 26.1397C5.37699 27.7163 4.17341 28.996 2.68898 28.996C1.20357 28.996 0 27.7163 0 26.1397C0 24.5621 1.20357 23.2834 2.68898 23.2834ZM2.68898 13C4.17341 13 5.37602 14.2797 5.37602 15.8563C5.37602 17.4339 4.17245 18.7126 2.68801 18.7126C1.20357 18.7126 0 17.4339 0 15.8563C0 14.2797 1.20357 13 2.68898 13ZM12.3677 13C13.8531 13 15.0567 14.2797 15.0567 15.8563C15.0567 17.4339 13.8531 18.7126 12.3677 18.7126C10.8833 18.7126 9.67973 17.4339 9.67973 15.8563C9.67973 14.2797 10.8833 13 12.3677 13Z" fill="#F3603C"/>
<path opacity="0.5" d="M12.3678 29.11C13.8529 29.11 15.0568 27.8312 15.0568 26.2538C15.0568 24.6763 13.8529 23.3975 12.3678 23.3975C10.8827 23.3975 9.67883 24.6763 9.67883 26.2538C9.67883 27.8312 10.8827 29.11 12.3678 29.11Z" fill="#F3603C"/>
<path d="M47.7082 9.704V7.976H54.4602V9.704L51.9642 10.12L46.3322 29.064H43.1962L38.6522 14.536L34.2362 29.064H31.1002L25.3722 9.896L23.4202 9.704V7.976H33.3402V9.704L31.0042 9.96L34.2682 22.824L38.1082 9.992L35.7722 9.704V7.976H45.3722V9.704L42.5562 10.056L46.3002 23.08L49.9802 10.056L47.7082 9.704ZM54.4367 29V27.496L56.1647 27.112C56.186 26.344 56.1967 25.512 56.1967 24.616C56.1967 23.72 56.1967 22.9413 56.1967 22.28V20.744C56.1967 19.8693 56.186 19.144 56.1647 18.568C56.1647 17.9707 56.1434 17.352 56.1007 16.712L54.1167 16.424V15.176L60.8367 13.032L61.3807 13.384L61.2847 18.024V22.28C61.2847 22.9413 61.2847 23.7307 61.2847 24.648C61.2847 25.544 61.2954 26.3867 61.3167 27.176L62.9167 27.496V29H54.4367ZM58.6927 10.664C57.946 10.664 57.306 10.4293 56.7727 9.96C56.2394 9.46933 55.9727 8.86133 55.9727 8.136C55.9727 7.38933 56.2394 6.78133 56.7727 6.312C57.306 5.82133 57.946 5.576 58.6927 5.576C59.4394 5.576 60.0794 5.82133 60.6127 6.312C61.146 6.78133 61.4127 7.38933 61.4127 8.136C61.4127 8.86133 61.146 9.46933 60.6127 9.96C60.0794 10.4293 59.4394 10.664 58.6927 10.664ZM70.1297 29.48C68.103 29.48 66.247 28.9893 64.5617 28.008L64.6577 24.104H67.2177L67.7617 27.272C68.1457 27.4213 68.5297 27.5387 68.9137 27.624C69.2977 27.688 69.7137 27.72 70.1617 27.72C71.079 27.72 71.783 27.5707 72.2737 27.272C72.7644 26.952 73.0097 26.472 73.0097 25.832C73.0097 25.3413 72.8284 24.9147 72.4657 24.552C72.103 24.1893 71.3884 23.8587 70.3217 23.56L68.5937 23.048C67.3564 22.6853 66.3964 22.0987 65.7137 21.288C65.0524 20.4773 64.7217 19.4747 64.7217 18.28C64.7217 16.808 65.2977 15.5707 66.4497 14.568C67.6017 13.544 69.255 13.032 71.4097 13.032C72.3484 13.032 73.2124 13.1493 74.0017 13.384C74.8124 13.5973 75.6337 13.9173 76.4657 14.344L76.2417 17.832H73.6817L73.0417 15.08C72.5937 14.9093 72.007 14.824 71.2817 14.824C70.5564 14.824 69.9697 14.9733 69.5217 15.272C69.095 15.5707 68.8817 16.0187 68.8817 16.616C68.8817 17.0427 69.0524 17.4267 69.3937 17.768C69.735 18.088 70.4604 18.4187 71.5697 18.76L73.1377 19.208C74.6524 19.656 75.7404 20.296 76.4017 21.128C77.063 21.96 77.3937 22.9733 77.3937 24.168C77.3937 25.8533 76.743 27.1653 75.4417 28.104C74.1617 29.0213 72.391 29.48 70.1297 29.48ZM86.9962 14.696C86.3989 14.696 85.8442 15.0693 85.3322 15.816C84.8415 16.5413 84.5642 17.8853 84.5002 19.848H87.2202C87.9882 19.848 88.5002 19.6987 88.7562 19.4C89.0335 19.08 89.1722 18.5573 89.1722 17.832C89.1722 16.7653 88.9589 15.976 88.5322 15.464C88.1055 14.952 87.5935 14.696 86.9962 14.696ZM87.0602 29.48C85.5029 29.48 84.1269 29.16 82.9322 28.52C81.7375 27.8587 80.7989 26.92 80.1162 25.704C79.4335 24.4667 79.0922 22.9947 79.0922 21.288C79.0922 19.496 79.4869 17.992 80.2762 16.776C81.0869 15.5387 82.1215 14.6107 83.3802 13.992C84.6389 13.352 85.9509 13.032 87.3162 13.032C88.7242 13.032 89.9189 13.3307 90.9002 13.928C91.9029 14.5253 92.6602 15.336 93.1722 16.36C93.6842 17.3627 93.9402 18.5147 93.9402 19.816C93.9402 20.4347 93.8762 21 93.7482 21.512H84.5002C84.6069 23.1973 85.0655 24.4453 85.8762 25.256C86.7082 26.0453 87.6789 26.44 88.7882 26.44C89.6629 26.44 90.4095 26.28 91.0282 25.96C91.6469 25.6187 92.1909 25.2027 92.6602 24.712L93.7802 25.736C93.1189 26.9947 92.2229 27.9333 91.0922 28.552C89.9615 29.1707 88.6175 29.48 87.0602 29.48ZM109.535 21.832C110.282 21.832 110.837 21.5013 111.199 20.84C111.583 20.1787 111.775 19.2827 111.775 18.152C111.775 17.0213 111.583 16.1467 111.199 15.528C110.837 14.888 110.303 14.568 109.599 14.568C108.874 14.568 108.33 14.888 107.967 15.528C107.605 16.168 107.423 17.0533 107.423 18.184C107.423 19.3147 107.594 20.2107 107.935 20.872C108.277 21.512 108.81 21.832 109.535 21.832ZM105.279 31.656C105.279 32.5947 105.631 33.2773 106.335 33.704C107.039 34.152 108.117 34.376 109.567 34.376C111.167 34.376 112.373 34.1413 113.183 33.672C113.994 33.2027 114.399 32.616 114.399 31.912C114.399 31.4427 114.229 31.016 113.887 30.632C113.546 30.2693 112.938 30.088 112.063 30.088H108.703C107.53 30.088 106.559 29.992 105.791 29.8C105.621 30.0987 105.493 30.3867 105.407 30.664C105.322 30.9413 105.279 31.272 105.279 31.656ZM109.567 23.336C108.458 23.336 107.487 23.208 106.655 22.952C106.399 23.4 106.271 23.8907 106.271 24.424C106.271 24.7867 106.41 25.0853 106.687 25.32C106.965 25.5333 107.445 25.64 108.127 25.64H111.871C113.493 25.64 114.783 25.8427 115.743 26.248C116.703 26.632 117.386 27.176 117.791 27.88C118.218 28.5627 118.431 29.3733 118.431 30.312C118.431 31.3787 118.079 32.36 117.375 33.256C116.671 34.1733 115.615 34.8987 114.207 35.432C112.821 35.9867 111.103 36.264 109.055 36.264C107.285 36.264 105.898 36.0827 104.895 35.72C103.893 35.3787 103.189 34.92 102.783 34.344C102.378 33.768 102.175 33.16 102.175 32.52C102.175 31.1547 103.061 30.056 104.831 29.224C104.17 28.9467 103.69 28.584 103.391 28.136C103.114 27.688 102.975 27.1973 102.975 26.664C102.975 25.9173 103.189 25.2133 103.615 24.552C104.063 23.8693 104.682 23.1867 105.471 22.504C104.597 22.056 103.946 21.4587 103.519 20.712C103.093 19.9653 102.879 19.1333 102.879 18.216C102.879 16.7227 103.423 15.4853 104.511 14.504C105.621 13.5227 107.306 13.032 109.567 13.032C110.719 13.032 111.722 13.16 112.575 13.416C113.429 13.672 114.122 14.0347 114.655 14.504L118.239 12.968L118.751 13.288V15.752H115.711C116.095 16.456 116.287 17.2773 116.287 18.216C116.287 19.6453 115.733 20.8613 114.623 21.864C113.535 22.8453 111.85 23.336 109.567 23.336ZM131.85 29.448C129.994 29.448 128.821 28.68 128.33 27.144C127.648 27.8693 126.986 28.4453 126.346 28.872C125.728 29.2773 124.864 29.48 123.754 29.48C122.517 29.48 121.504 29.128 120.714 28.424C119.946 27.72 119.562 26.7067 119.562 25.384C119.562 24.616 119.733 23.9227 120.074 23.304C120.416 22.6853 121.034 22.1093 121.93 21.576C122.826 21.0427 124.096 20.5413 125.738 20.072C126.058 19.9653 126.432 19.8587 126.858 19.752C127.285 19.6453 127.722 19.5387 128.17 19.432V18.376C128.17 16.9467 127.989 15.976 127.626 15.464C127.285 14.952 126.602 14.696 125.578 14.696C125.429 14.696 125.29 14.696 125.162 14.696C125.034 14.696 124.885 14.7067 124.714 14.728L124.554 16.136C124.533 17.1813 124.288 17.9387 123.818 18.408C123.37 18.8773 122.837 19.112 122.218 19.112C121.045 19.112 120.33 18.5787 120.074 17.512C120.16 16.1893 120.832 15.112 122.09 14.28C123.349 13.448 125.13 13.032 127.434 13.032C129.482 13.032 130.944 13.5013 131.818 14.44C132.714 15.3787 133.162 16.9253 133.162 19.08V26.248C133.162 26.8667 133.397 27.176 133.866 27.176C134.037 27.176 134.197 27.1333 134.346 27.048C134.496 26.9413 134.656 26.7493 134.826 26.472L135.69 27.048C135.306 27.9013 134.805 28.52 134.186 28.904C133.589 29.2667 132.81 29.448 131.85 29.448ZM124.298 24.552C124.298 25.3413 124.48 25.928 124.842 26.312C125.226 26.696 125.685 26.888 126.218 26.888C126.453 26.888 126.698 26.8347 126.954 26.728C127.21 26.6213 127.616 26.376 128.17 25.992V20.808C127.893 20.8933 127.616 20.9893 127.338 21.096C127.082 21.1813 126.858 21.2667 126.666 21.352C125.941 21.6507 125.365 22.0773 124.938 22.632C124.512 23.1653 124.298 23.8053 124.298 24.552ZM136.53 29V27.496L138.258 27.112C138.28 26.344 138.29 25.512 138.29 24.616C138.29 23.72 138.29 22.9413 138.29 22.28V20.744C138.29 19.8693 138.28 19.144 138.258 18.568C138.258 17.9707 138.237 17.352 138.194 16.712L136.21 16.424V15.176L142.93 13.032L143.474 13.384L143.378 18.024V22.28C143.378 22.9413 143.378 23.7307 143.378 24.648C143.378 25.544 143.389 26.3867 143.41 27.176L145.01 27.496V29H136.53ZM140.786 10.664C140.04 10.664 139.4 10.4293 138.866 9.96C138.333 9.46933 138.066 8.86133 138.066 8.136C138.066 7.38933 138.333 6.78133 138.866 6.312C139.4 5.82133 140.04 5.576 140.786 5.576C141.533 5.576 142.173 5.82133 142.706 6.312C143.24 6.78133 143.506 7.38933 143.506 8.136C143.506 8.86133 143.24 9.46933 142.706 9.96C142.173 10.4293 141.533 10.664 140.786 10.664ZM146.591 29V27.496L148.319 27.112C148.341 26.344 148.351 25.512 148.351 24.616C148.351 23.72 148.351 22.9413 148.351 22.28V20.424C148.351 19.5493 148.341 18.8773 148.319 18.408C148.319 17.9173 148.298 17.352 148.255 16.712L146.303 16.424V15.176L152.607 13.032L153.183 13.384L153.375 15.688C154.207 14.7067 155.029 14.024 155.839 13.64C156.671 13.2347 157.557 13.032 158.495 13.032C159.882 13.032 160.991 13.4907 161.823 14.408C162.677 15.3253 163.103 16.7013 163.103 18.536V22.28C163.103 22.984 163.103 23.784 163.103 24.68C163.103 25.5547 163.114 26.3867 163.135 27.176L164.735 27.496V29H156.287V27.496L157.951 27.144C157.973 26.3547 157.983 25.5227 157.983 24.648C157.983 23.752 157.983 22.9627 157.983 22.28V18.92C157.983 17.896 157.845 17.1813 157.567 16.776C157.29 16.3493 156.842 16.136 156.223 16.136C155.391 16.136 154.474 16.52 153.471 17.288V22.28C153.471 22.9413 153.471 23.7307 153.471 24.648C153.471 25.544 153.482 26.3867 153.503 27.176L155.007 27.496V29H146.591ZM171.942 29.48C169.916 29.48 168.06 28.9893 166.374 28.008L166.47 24.104H169.03L169.574 27.272C169.958 27.4213 170.342 27.5387 170.726 27.624C171.11 27.688 171.526 27.72 171.974 27.72C172.892 27.72 173.596 27.5707 174.086 27.272C174.577 26.952 174.822 26.472 174.822 25.832C174.822 25.3413 174.641 24.9147 174.278 24.552C173.916 24.1893 173.201 23.8587 172.134 23.56L170.406 23.048C169.169 22.6853 168.209 22.0987 167.526 21.288C166.865 20.4773 166.534 19.4747 166.534 18.28C166.534 16.808 167.11 15.5707 168.262 14.568C169.414 13.544 171.068 13.032 173.222 13.032C174.161 13.032 175.025 13.1493 175.814 13.384C176.625 13.5973 177.446 13.9173 178.278 14.344L178.054 17.832H175.494L174.854 15.08C174.406 14.9093 173.82 14.824 173.094 14.824C172.369 14.824 171.782 14.9733 171.334 15.272C170.908 15.5707 170.694 16.0187 170.694 16.616C170.694 17.0427 170.865 17.4267 171.206 17.768C171.548 18.088 172.273 18.4187 173.382 18.76L174.95 19.208C176.465 19.656 177.553 20.296 178.214 21.128C178.876 21.96 179.206 22.9733 179.206 24.168C179.206 25.8533 178.556 27.1653 177.254 28.104C175.974 29.0213 174.204 29.48 171.942 29.48Z" fill="white"/>
</svg>
