<svg width="194" height="43" viewBox="0 0 194 43" fill="none" xmlns="http://www.w3.org/2000/svg">
<path fill-rule="evenodd" clip-rule="evenodd" d="M2.68898 23.2834C4.17341 23.2834 5.37699 24.5621 5.37699 26.1397C5.37699 27.7163 4.17341 28.996 2.68898 28.996C1.20357 28.996 0 27.7163 0 26.1397C0 24.5621 1.20357 23.2834 2.68898 23.2834ZM2.68898 13C4.17341 13 5.37602 14.2797 5.37602 15.8563C5.37602 17.4339 4.17245 18.7126 2.68801 18.7126C1.20357 18.7126 0 17.4339 0 15.8563C0 14.2797 1.20357 13 2.68898 13ZM12.3677 13C13.8531 13 15.0567 14.2797 15.0567 15.8563C15.0567 17.4339 13.8531 18.7126 12.3677 18.7126C10.8833 18.7126 9.67973 17.4339 9.67973 15.8563C9.67973 14.2797 10.8833 13 12.3677 13Z" fill="#F3603C"/>
<path opacity="0.5" d="M12.3677 29.11C13.8528 29.11 15.0567 27.8312 15.0567 26.2538C15.0567 24.6763 13.8528 23.3975 12.3677 23.3975C10.8827 23.3975 9.67877 24.6763 9.67877 26.2538C9.67877 27.8312 10.8827 29.11 12.3677 29.11Z" fill="#F3603C"/>
<path d="M47.7082 9.704V7.976H54.4602V9.704L51.9642 10.12L46.3322 29.064H43.1962L38.6522 14.536L34.2362 29.064H31.1002L25.3722 9.896L23.4202 9.704V7.976H33.3402V9.704L31.0042 9.96L34.2682 22.824L38.1082 9.992L35.7722 9.704V7.976H45.3722V9.704L42.5562 10.056L46.3002 23.08L49.9802 10.056L47.7082 9.704ZM54.4367 29V27.496L56.1647 27.112C56.186 26.344 56.1967 25.512 56.1967 24.616C56.1967 23.72 56.1967 22.9413 56.1967 22.28V20.744C56.1967 19.8693 56.186 19.144 56.1647 18.568C56.1647 17.9707 56.1434 17.352 56.1007 16.712L54.1167 16.424V15.176L60.8367 13.032L61.3807 13.384L61.2847 18.024V22.28C61.2847 22.9413 61.2847 23.7307 61.2847 24.648C61.2847 25.544 61.2954 26.3867 61.3167 27.176L62.9167 27.496V29H54.4367ZM58.6927 10.664C57.946 10.664 57.306 10.4293 56.7727 9.96C56.2394 9.46933 55.9727 8.86133 55.9727 8.136C55.9727 7.38933 56.2394 6.78133 56.7727 6.312C57.306 5.82133 57.946 5.576 58.6927 5.576C59.4394 5.576 60.0794 5.82133 60.6127 6.312C61.146 6.78133 61.4127 7.38933 61.4127 8.136C61.4127 8.86133 61.146 9.46933 60.6127 9.96C60.0794 10.4293 59.4394 10.664 58.6927 10.664ZM70.1297 29.48C68.103 29.48 66.247 28.9893 64.5617 28.008L64.6577 24.104H67.2177L67.7617 27.272C68.1457 27.4213 68.5297 27.5387 68.9137 27.624C69.2977 27.688 69.7137 27.72 70.1617 27.72C71.079 27.72 71.783 27.5707 72.2737 27.272C72.7644 26.952 73.0097 26.472 73.0097 25.832C73.0097 25.3413 72.8284 24.9147 72.4657 24.552C72.103 24.1893 71.3884 23.8587 70.3217 23.56L68.5937 23.048C67.3564 22.6853 66.3964 22.0987 65.7137 21.288C65.0524 20.4773 64.7217 19.4747 64.7217 18.28C64.7217 16.808 65.2977 15.5707 66.4497 14.568C67.6017 13.544 69.255 13.032 71.4097 13.032C72.3484 13.032 73.2124 13.1493 74.0017 13.384C74.8124 13.5973 75.6337 13.9173 76.4657 14.344L76.2417 17.832H73.6817L73.0417 15.08C72.5937 14.9093 72.007 14.824 71.2817 14.824C70.5564 14.824 69.9697 14.9733 69.5217 15.272C69.095 15.5707 68.8817 16.0187 68.8817 16.616C68.8817 17.0427 69.0524 17.4267 69.3937 17.768C69.735 18.088 70.4604 18.4187 71.5697 18.76L73.1377 19.208C74.6524 19.656 75.7404 20.296 76.4017 21.128C77.063 21.96 77.3937 22.9733 77.3937 24.168C77.3937 25.8533 76.743 27.1653 75.4417 28.104C74.1617 29.0213 72.391 29.48 70.1297 29.48ZM86.9962 14.696C86.3989 14.696 85.8442 15.0693 85.3322 15.816C84.8415 16.5413 84.5642 17.8853 84.5002 19.848H87.2202C87.9882 19.848 88.5002 19.6987 88.7562 19.4C89.0335 19.08 89.1722 18.5573 89.1722 17.832C89.1722 16.7653 88.9589 15.976 88.5322 15.464C88.1055 14.952 87.5935 14.696 86.9962 14.696ZM87.0602 29.48C85.5029 29.48 84.1269 29.16 82.9322 28.52C81.7375 27.8587 80.7989 26.92 80.1162 25.704C79.4335 24.4667 79.0922 22.9947 79.0922 21.288C79.0922 19.496 79.4869 17.992 80.2762 16.776C81.0869 15.5387 82.1215 14.6107 83.3802 13.992C84.6389 13.352 85.9509 13.032 87.3162 13.032C88.7242 13.032 89.9189 13.3307 90.9002 13.928C91.9029 14.5253 92.6602 15.336 93.1722 16.36C93.6842 17.3627 93.9402 18.5147 93.9402 19.816C93.9402 20.4347 93.8762 21 93.7482 21.512H84.5002C84.6069 23.1973 85.0655 24.4453 85.8762 25.256C86.7082 26.0453 87.6789 26.44 88.7882 26.44C89.6629 26.44 90.4095 26.28 91.0282 25.96C91.6469 25.6187 92.1909 25.2027 92.6602 24.712L93.7802 25.736C93.1189 26.9947 92.2229 27.9333 91.0922 28.552C89.9615 29.1707 88.6175 29.48 87.0602 29.48ZM113.855 29.608C111.658 29.608 109.727 29.16 108.063 28.264C106.399 27.368 105.098 26.088 104.159 24.424C103.242 22.76 102.783 20.7653 102.783 18.44C102.783 16.2 103.231 14.2587 104.127 12.616C105.023 10.952 106.325 9.66133 108.031 8.744C109.759 7.82667 111.829 7.368 114.239 7.368C115.285 7.368 116.341 7.496 117.407 7.752C118.495 7.98667 119.498 8.34933 120.415 8.84L120.543 13.832H118.079L117.151 9.672C116.383 9.352 115.615 9.192 114.847 9.192C113.695 9.192 112.629 9.52267 111.647 10.184C110.687 10.8453 109.909 11.8587 109.311 13.224C108.735 14.568 108.447 16.3067 108.447 18.44C108.447 20.552 108.725 22.3013 109.279 23.688C109.855 25.0747 110.623 26.1093 111.583 26.792C112.543 27.4533 113.61 27.784 114.783 27.784C115.253 27.784 115.658 27.7413 115.999 27.656V26.28C115.999 25.3413 115.989 24.4133 115.967 23.496C115.967 22.5787 115.957 21.6613 115.935 20.744L113.055 20.36V18.632H122.815V20.36L121.151 20.584C121.13 21.544 121.109 22.504 121.087 23.464C121.087 24.4027 121.087 25.3733 121.087 26.376V27.72C119.978 28.36 118.847 28.8293 117.695 29.128C116.543 29.448 115.263 29.608 113.855 29.608ZM136.35 29.448C134.494 29.448 133.321 28.68 132.83 27.144C132.148 27.8693 131.486 28.4453 130.846 28.872C130.228 29.2773 129.364 29.48 128.254 29.48C127.017 29.48 126.004 29.128 125.214 28.424C124.446 27.72 124.062 26.7067 124.062 25.384C124.062 24.616 124.233 23.9227 124.574 23.304C124.916 22.6853 125.534 22.1093 126.43 21.576C127.326 21.0427 128.596 20.5413 130.238 20.072C130.558 19.9653 130.932 19.8587 131.358 19.752C131.785 19.6453 132.222 19.5387 132.67 19.432V18.376C132.67 16.9467 132.489 15.976 132.126 15.464C131.785 14.952 131.102 14.696 130.078 14.696C129.929 14.696 129.79 14.696 129.662 14.696C129.534 14.696 129.385 14.7067 129.214 14.728L129.054 16.136C129.033 17.1813 128.788 17.9387 128.318 18.408C127.87 18.8773 127.337 19.112 126.718 19.112C125.545 19.112 124.83 18.5787 124.574 17.512C124.66 16.1893 125.332 15.112 126.59 14.28C127.849 13.448 129.63 13.032 131.934 13.032C133.982 13.032 135.444 13.5013 136.318 14.44C137.214 15.3787 137.662 16.9253 137.662 19.08V26.248C137.662 26.8667 137.897 27.176 138.366 27.176C138.537 27.176 138.697 27.1333 138.846 27.048C138.996 26.9413 139.156 26.7493 139.326 26.472L140.19 27.048C139.806 27.9013 139.305 28.52 138.686 28.904C138.089 29.2667 137.31 29.448 136.35 29.448ZM128.798 24.552C128.798 25.3413 128.98 25.928 129.342 26.312C129.726 26.696 130.185 26.888 130.718 26.888C130.953 26.888 131.198 26.8347 131.454 26.728C131.71 26.6213 132.116 26.376 132.67 25.992V20.808C132.393 20.8933 132.116 20.9893 131.838 21.096C131.582 21.1813 131.358 21.2667 131.166 21.352C130.441 21.6507 129.865 22.0773 129.438 22.632C129.012 23.1653 128.798 23.8053 128.798 24.552ZM141.03 29V27.496L142.758 27.112C142.78 26.344 142.79 25.512 142.79 24.616C142.79 23.72 142.79 22.9413 142.79 22.28V20.744C142.79 19.8693 142.78 19.144 142.758 18.568C142.758 17.9707 142.737 17.352 142.694 16.712L140.71 16.424V15.176L147.43 13.032L147.974 13.384L147.878 18.024V22.28C147.878 22.9413 147.878 23.7307 147.878 24.648C147.878 25.544 147.889 26.3867 147.91 27.176L149.51 27.496V29H141.03ZM145.286 10.664C144.54 10.664 143.9 10.4293 143.366 9.96C142.833 9.46933 142.566 8.86133 142.566 8.136C142.566 7.38933 142.833 6.78133 143.366 6.312C143.9 5.82133 144.54 5.576 145.286 5.576C146.033 5.576 146.673 5.82133 147.206 6.312C147.74 6.78133 148.006 7.38933 148.006 8.136C148.006 8.86133 147.74 9.46933 147.206 9.96C146.673 10.4293 146.033 10.664 145.286 10.664ZM151.091 29V27.496L152.819 27.112C152.841 26.344 152.851 25.512 152.851 24.616C152.851 23.72 152.851 22.9413 152.851 22.28V20.424C152.851 19.5493 152.841 18.8773 152.819 18.408C152.819 17.9173 152.798 17.352 152.755 16.712L150.803 16.424V15.176L157.107 13.032L157.683 13.384L157.875 15.688C158.707 14.7067 159.529 14.024 160.339 13.64C161.171 13.2347 162.057 13.032 162.995 13.032C164.382 13.032 165.491 13.4907 166.323 14.408C167.177 15.3253 167.603 16.7013 167.603 18.536V22.28C167.603 22.984 167.603 23.784 167.603 24.68C167.603 25.5547 167.614 26.3867 167.635 27.176L169.235 27.496V29H160.787V27.496L162.451 27.144C162.473 26.3547 162.483 25.5227 162.483 24.648C162.483 23.752 162.483 22.9627 162.483 22.28V18.92C162.483 17.896 162.345 17.1813 162.067 16.776C161.79 16.3493 161.342 16.136 160.723 16.136C159.891 16.136 158.974 16.52 157.971 17.288V22.28C157.971 22.9413 157.971 23.7307 157.971 24.648C157.971 25.544 157.982 26.3867 158.003 27.176L159.507 27.496V29H151.091ZM176.442 29.48C174.416 29.48 172.56 28.9893 170.874 28.008L170.97 24.104H173.53L174.074 27.272C174.458 27.4213 174.842 27.5387 175.226 27.624C175.61 27.688 176.026 27.72 176.474 27.72C177.392 27.72 178.096 27.5707 178.586 27.272C179.077 26.952 179.322 26.472 179.322 25.832C179.322 25.3413 179.141 24.9147 178.778 24.552C178.416 24.1893 177.701 23.8587 176.634 23.56L174.906 23.048C173.669 22.6853 172.709 22.0987 172.026 21.288C171.365 20.4773 171.034 19.4747 171.034 18.28C171.034 16.808 171.61 15.5707 172.762 14.568C173.914 13.544 175.568 13.032 177.722 13.032C178.661 13.032 179.525 13.1493 180.314 13.384C181.125 13.5973 181.946 13.9173 182.778 14.344L182.554 17.832H179.994L179.354 15.08C178.906 14.9093 178.32 14.824 177.594 14.824C176.869 14.824 176.282 14.9733 175.834 15.272C175.408 15.5707 175.194 16.0187 175.194 16.616C175.194 17.0427 175.365 17.4267 175.706 17.768C176.048 18.088 176.773 18.4187 177.882 18.76L179.45 19.208C180.965 19.656 182.053 20.296 182.714 21.128C183.376 21.96 183.706 22.9733 183.706 24.168C183.706 25.8533 183.056 27.1653 181.754 28.104C180.474 29.0213 178.704 29.48 176.442 29.48Z" fill="#242D52"/>
</svg>
